#tb 0: 1/25
#media_type 0: video
#codec_id 0: rawvideo
#dimensions 0: 720x480
#sar 0: 0/1
0,          0,          0,        1,   518400, 0x230d7aa6
0,          1,          1,        1,   518400, 0x9fc976e0
0,          2,          2,        1,   518400, 0x51052db9
0,          3,          3,        1,   518400, 0xad82d599
0,          4,          4,        1,   518400, 0xa122c6a7
0,          5,          5,        1,   518400, 0x0c3a81a0
0,          6,          6,        1,   518400, 0x6235364e
0,          7,          7,        1,   518400, 0x4d5104f8
0,          8,          8,        1,   518400, 0x09cc49b1
0,          9,          9,        1,   518400, 0xcdb05c19
0,         10,         10,        1,   518400, 0x894be6de
0,         11,         11,        1,   518400, 0x53a41fc3
0,         12,         12,        1,   518400, 0x7568ccee
0,         13,         13,        1,   518400, 0x2b5ae37b
0,         14,         14,        1,   518400, 0xd0b994bb
0,         15,         15,        1,   518400, 0x1b161358
0,         16,         16,        1,   518400, 0xc5434edc
0,         17,         17,        1,   518400, 0xc4709590
0,         18,         18,        1,   518400, 0x60c6803a
0,         19,         19,        1,   518400, 0xdff3edcd
0,         20,         20,        1,   518400, 0x8a02b8b4
0,         21,         21,        1,   518400, 0x478cf791
0,         22,         22,        1,   518400, 0x7c42fed0
0,         23,         23,        1,   518400, 0x12b1336d
0,         24,         24,        1,   518400, 0xe16e765e
0,         25,         25,        1,   518400, 0x002c291e
0,         26,         26,        1,   518400, 0x50810b53
0,         27,         27,        1,   518400, 0xda7e2453
0,         28,         28,        1,   518400, 0x6e330093
0,         29,         29,        1,   518400, 0xf30740b3
0,         30,         30,        1,   518400, 0xc27ae19d
0,         31,         31,        1,   518400, 0xe49da8c2
0,         32,         32,        1,   518400, 0xa739372c
0,         33,         33,        1,   518400, 0x4b44788c
0,         34,         34,        1,   518400, 0xfdf9e6cf
0,         35,         35,        1,   518400, 0xee205413
0,         36,         36,        1,   518400, 0x8792dc0e
0,         37,         37,        1,   518400, 0x6820d611
0,         38,         38,        1,   518400, 0x106cbc2c
0,         39,         39,        1,   518400, 0x7d8e3e92
0,         40,         40,        1,   518400, 0xbfe48709
0,         41,         41,        1,   518400, 0xc5d5a55d
0,         42,         42,        1,   518400, 0x7c234886
0,         43,         43,        1,   518400, 0x852372b0
0,         44,         44,        1,   518400, 0x43d697f9
0,         45,         45,        1,   518400, 0xc3460806
0,         46,         46,        1,   518400, 0x0600abea
0,         47,         47,        1,   518400, 0xf6e3ab0e
0,         48,         48,        1,   518400, 0x651f9a46
0,         49,         49,        1,   518400, 0xed467ba0
0,         50,         50,        1,   518400, 0x62312c3f
0,         51,         51,        1,   518400, 0xb121898d
0,         52,         52,        1,   518400, 0xb1f96406
0,         53,         53,        1,   518400, 0x78003318
0,         54,         54,        1,   518400, 0x1032b15b
0,         55,         55,        1,   518400, 0x72683d37
0,         56,         56,        1,   518400, 0xd1349f12
0,         57,         57,        1,   518400, 0x4162f707
0,         58,         58,        1,   518400, 0x894711c9
0,         59,         59,        1,   518400, 0xca37429b
0,         60,         60,        1,   518400, 0xb8e91eb5
0,         61,         61,        1,   518400, 0xe5eb3103
0,         62,         62,        1,   518400, 0x56a33cea
0,         63,         63,        1,   518400, 0x79ef0227
0,         64,         64,        1,   518400, 0x7ceaab75
0,         65,         65,        1,   518400, 0x3f4787b2
0,         66,         66,        1,   518400, 0x9e6d2abb
0,         67,         67,        1,   518400, 0xedb0cf82
0,         68,         68,        1,   518400, 0x19c8723f
0,         69,         69,        1,   518400, 0x35d8399b
0,         70,         70,        1,   518400, 0xe0224dc8
0,         71,         71,        1,   518400, 0xc95467bf
0,         72,         72,        1,   518400, 0x99662844
0,         73,         73,        1,   518400, 0x10a322c9
0,         74,         74,        1,   518400, 0xe6313d98
0,         75,         75,        1,   518400, 0x2e2a63d1
0,         76,         76,        1,   518400, 0x2c9d0715
0,         77,         77,        1,   518400, 0xf31d9e19
0,         78,         78,        1,   518400, 0xcea1f9f8
0,         79,         79,        1,   518400, 0xece1cd92
0,         80,         80,        1,   518400, 0xa8d35347
0,         81,         81,        1,   518400, 0xd8cd2228
0,         82,         82,        1,   518400, 0xe040993a
0,         83,         83,        1,   518400, 0xebc2b387
0,         84,         84,        1,   518400, 0xc3e81e85
0,         85,         85,        1,   518400, 0xcc507bc9
0,         86,         86,        1,   518400, 0xb98c4902
0,         87,         87,        1,   518400, 0x454a2a50
0,         88,         88,        1,   518400, 0x1460c5dd
0,         89,         89,        1,   518400, 0x37d7a99d
0,         90,         90,        1,   518400, 0x1de7a047
0,         91,         91,        1,   518400, 0xc7b83c21
0,         92,         92,        1,   518400, 0xe06d1c9b
0,         93,         93,        1,   518400, 0xfd8259b5
0,         94,         94,        1,   518400, 0xc3df7e1a
0,         95,         95,        1,   518400, 0x60c9ccec
0,         96,         96,        1,   518400, 0x7d163c04
0,         97,         97,        1,   518400, 0x8fc61e9d
0,         98,         98,        1,   518400, 0xa5f520e6
0,         99,         99,        1,   518400, 0x8d709ec1
0,        100,        100,        1,   518400, 0xca2b6287
0,        101,        101,        1,   518400, 0x8531bb18
0,        102,        102,        1,   518400, 0x830f9187
0,        103,        103,        1,   518400, 0x67c5d413
0,        104,        104,        1,   518400, 0x428aeecd
0,        105,        105,        1,   518400, 0xbf8e3448
0,        106,        106,        1,   518400, 0x847389f0
0,        107,        107,        1,   518400, 0x18d0b3ba
0,        108,        108,        1,   518400, 0xbee957ea
0,        109,        109,        1,   518400, 0x34941f3e
0,        110,        110,        1,   518400, 0x850e0126
0,        111,        111,        1,   518400, 0xab992409
0,        112,        112,        1,   518400, 0xb7d8d01f
0,        113,        113,        1,   518400, 0xe602576c
0,        114,        114,        1,   518400, 0x22388048
0,        115,        115,        1,   518400, 0x81ab9f4a
0,        116,        116,        1,   518400, 0xc5977820
0,        117,        117,        1,   518400, 0xc43f98bd
0,        118,        118,        1,   518400, 0xfd5e6d12
0,        119,        119,        1,   518400, 0xb9f12c73
0,        120,        120,        1,   518400, 0x44be16b9
0,        121,        121,        1,   518400, 0x32f0d9b9
0,        122,        122,        1,   518400, 0x6e9c3113
0,        123,        123,        1,   518400, 0x00618755
0,        124,        124,        1,   518400, 0x080c9955
0,        125,        125,        1,   518400, 0xb21d6096
0,        126,        126,        1,   518400, 0x51502f54
0,        127,        127,        1,   518400, 0xf062e38b
0,        128,        128,        1,   518400, 0x66f05988
0,        129,        129,        1,   518400, 0x37d569f1
0,        130,        130,        1,   518400, 0xba78ae5e
0,        131,        131,        1,   518400, 0x634a2d25
0,        132,        132,        1,   518400, 0x283e5e4a
0,        133,        133,        1,   518400, 0x9344d41c
0,        134,        134,        1,   518400, 0x1fdb5c18
0,        135,        135,        1,   518400, 0xd8139683
0,        136,        136,        1,   518400, 0xd27f555e
0,        137,        137,        1,   518400, 0x34ed517f
0,        138,        138,        1,   518400, 0x1f55ad2d
0,        139,        139,        1,   518400, 0x9a8bd368
0,        140,        140,        1,   518400, 0x9726e3bf
0,        141,        141,        1,   518400, 0xaf8945ee
0,        142,        142,        1,   518400, 0x28c20699
0,        143,        143,        1,   518400, 0x43e180c9
0,        144,        144,        1,   518400, 0x0c88e592
0,        145,        145,        1,   518400, 0xdcb8825e
0,        146,        146,        1,   518400, 0x1ec09a5e
0,        147,        147,        1,   518400, 0x149768b2
0,        148,        148,        1,   518400, 0x1eeab153
0,        149,        149,        1,   518400, 0x25666d6f
0,        150,        150,        1,   518400, 0x691cad89
0,        151,        151,        1,   518400, 0x2d9f8ced
0,        152,        152,        1,   518400, 0xd80b768d
0,        153,        153,        1,   518400, 0xe4f23a79
0,        154,        154,        1,   518400, 0xd51d0150
0,        155,        155,        1,   518400, 0x060156f4
0,        156,        156,        1,   518400, 0x800720fb
0,        157,        157,        1,   518400, 0x2a433b28
0,        158,        158,        1,   518400, 0xffc79782
0,        159,        159,        1,   518400, 0x31ba693b
0,        160,        160,        1,   518400, 0xd13c8395
0,        161,        161,        1,   518400, 0x07d9f752
0,        162,        162,        1,   518400, 0xabb81043
0,        163,        163,        1,   518400, 0xba0ee926
0,        164,        164,        1,   518400, 0xa17e7ea9
0,        165,        165,        1,   518400, 0x9d709e52
0,        166,        166,        1,   518400, 0x7fa02633
0,        167,        167,        1,   518400, 0x5cdc5217
0,        168,        168,        1,   518400, 0x888be0b0
0,        169,        169,        1,   518400, 0xe1bac436
0,        170,        170,        1,   518400, 0xa479b1b8
0,        171,        171,        1,   518400, 0xb61feb17
0,        172,        172,        1,   518400, 0xa0745cd4
0,        173,        173,        1,   518400, 0x871cffe5
0,        174,        174,        1,   518400, 0x01f7deea
0,        175,        175,        1,   518400, 0xdaf6f9f5
0,        176,        176,        1,   518400, 0xfee4849c
0,        177,        177,        1,   518400, 0xc3b9b428
0,        178,        178,        1,   518400, 0x50b4b47f
0,        179,        179,        1,   518400, 0xe8e58b82
0,        180,        180,        1,   518400, 0x7c6f94e0
0,        181,        181,        1,   518400, 0x0cfe7c08
0,        182,        182,        1,   518400, 0xb2975466
0,        183,        183,        1,   518400, 0xa1245de1
0,        184,        184,        1,   518400, 0x46ae79b7
0,        185,        185,        1,   518400, 0x8344a9b2
0,        186,        186,        1,   518400, 0x1e805013
0,        187,        187,        1,   518400, 0x19b61baf
0,        188,        188,        1,   518400, 0xd018383b
0,        189,        189,        1,   518400, 0xc9248d31
0,        190,        190,        1,   518400, 0x838ad8ec
0,        191,        191,        1,   518400, 0xa848824a
0,        192,        192,        1,   518400, 0xc6a46ebd
0,        193,        193,        1,   518400, 0x2a7c489c
0,        194,        194,        1,   518400, 0xb1db6cef
0,        195,        195,        1,   518400, 0xd24a999f
0,        196,        196,        1,   518400, 0xce47efcd
0,        197,        197,        1,   518400, 0xf3e058cb
0,        198,        198,        1,   518400, 0x25d7f6e3
0,        199,        199,        1,   518400, 0xe3daa12d
0,        200,        200,        1,   518400, 0xb3de8475
0,        201,        201,        1,   518400, 0x13efffdc
0,        202,        202,        1,   518400, 0xfb37e048
0,        203,        203,        1,   518400, 0x599a6daf
0,        204,        204,        1,   518400, 0x84bf6814
0,        205,        205,        1,   518400, 0x83c03a3f
0,        206,        206,        1,   518400, 0x3a319ae9
0,        207,        207,        1,   518400, 0x0af252c3
0,        208,        208,        1,   518400, 0xeb8f2f43
0,        209,        209,        1,   518400, 0x3bdcd421
0,        210,        210,        1,   518400, 0x9107e0f2
0,        211,        211,        1,   518400, 0x5f4fe3cf
0,        212,        212,        1,   518400, 0x38f1e8ef
0,        213,        213,        1,   518400, 0xb0359a0b
0,        214,        214,        1,   518400, 0xdddd4645
0,        215,        215,        1,   518400, 0xe14ffb0b
0,        216,        216,        1,   518400, 0x34a31c96
0,        217,        217,        1,   518400, 0x1f4406de
0,        218,        218,        1,   518400, 0x042b82b6
0,        219,        219,        1,   518400, 0x6af16a4d
0,        220,        220,        1,   518400, 0x3cfba41a
0,        221,        221,        1,   518400, 0xa054b6e8
0,        222,        222,        1,   518400, 0x2d55721b
0,        223,        223,        1,   518400, 0x55391f75
0,        224,        224,        1,   518400, 0xc2d46fa6
0,        225,        225,        1,   518400, 0x3a2576d9
0,        226,        226,        1,   518400, 0xea9ea26d
0,        227,        227,        1,   518400, 0xe2ec8962
0,        228,        228,        1,   518400, 0x47568769
0,        229,        229,        1,   518400, 0xc55e0186
0,        230,        230,        1,   518400, 0x73a44453
0,        231,        231,        1,   518400, 0xe36b1c77
0,        232,        232,        1,   518400, 0x414db365
0,        233,        233,        1,   518400, 0xfb25f7f6
0,        234,        234,        1,   518400, 0x5b4847a7
0,        235,        235,        1,   518400, 0xe96babf4
0,        236,        236,        1,   518400, 0x15edbf63
0,        237,        237,        1,   518400, 0x08a984c6
0,        238,        238,        1,   518400, 0x47ec41af
0,        239,        239,        1,   518400, 0x1912eaca
0,        240,        240,        1,   518400, 0xe058b0cc
0,        241,        241,        1,   518400, 0x03e9660b
0,        242,        242,        1,   518400, 0x85fea285
0,        243,        243,        1,   518400, 0xdf02bdd6
0,        244,        244,        1,   518400, 0xad3e6849
0,        245,        245,        1,   518400, 0x0ad866b6
0,        246,        246,        1,   518400, 0x1b994f78
0,        247,        247,        1,   518400, 0xc5916af5
0,        248,        248,        1,   518400, 0x5f66adeb
0,        249,        249,        1,   518400, 0x1c9f96a1
0,        250,        250,        1,   518400, 0xfc390832
0,        251,        251,        1,   518400, 0x0352ff56
0,        252,        252,        1,   518400, 0x6803c8f4
0,        253,        253,        1,   518400, 0x0f0b8686
0,        254,        254,        1,   518400, 0xdc3a5bce
0,        255,        255,        1,   518400, 0x96dd28d1
0,        256,        256,        1,   518400, 0x51d56824
